<svg width="10" height="10" viewBox="0 0 10 10" fill="none" xmlns="http://www.w3.org/2000/svg">
<path d="M9.39296 3.14848L6.68944 2.75747L5.48108 0.326989C5.26458 -0.106238 4.63727 -0.111746 4.41892 0.326989L3.21056 2.75747L0.507036 3.14848C0.0222144 3.21823 -0.172084 3.81117 0.179504 4.15077L2.13544 6.04156L1.67283 8.71251C1.58956 9.19531 2.10214 9.55694 2.53144 9.33115L4.95 8.07002L7.36856 9.33115C7.79786 9.55511 8.31044 9.19531 8.22717 8.71251L7.76456 6.04156L9.7205 4.15077C10.0721 3.81117 9.87779 3.21823 9.39296 3.14848ZM6.81157 5.73316L7.25013 8.27378L4.95 7.07506L2.64987 8.27378L3.08843 5.73316L1.22687 3.93416L3.79901 3.56335L4.95 1.25035L6.10099 3.56335L8.67313 3.93416L6.81157 5.73316Z" fill="#FFD168"/>
</svg>
